<svg viewBox="123.39 107.97263999999998 113.76 114.48" xmlns="http://www.w3.org/2000/svg" data-name="Layer 1" id="Layer_1" style="max-height: 500px" width="87.26400000000001" height="87.26400000000001">
  <defs>
    <style>
      .cls-1 {
        fill: #4a1610;
      }
    </style>
  </defs>
  <path d="M234.98,164.49c0,30.37-24.62,54.98-54.98,54.98s-54.98-24.62-54.98-54.98,24.62-54.98,54.98-54.98,54.98,24.62,54.98,54.98ZM225.04,164.49c0-24.88-20.17-45.04-45.04-45.04s-45.04,20.17-45.04,45.04,20.17,45.04,45.04,45.04,45.04-20.17,45.04-45.04Z" class="cls-1"/>
  <path d="M176.2,165.95c3.98-2.23,8.52-3.85,11.2-6.85,4.28-4.78,1.18-11.51-3.62-13.71-5.53-2.54-11.49-.12-13.82,6.3-.62,1.71-3.79,3.19-5.42,2.94-2.26-.36-4.5-3.49-3.74-6.26,2.95-10.72,14.95-16.23,24.77-12.89,10.4,3.54,16.85,14.47,12.36,25.25-2.91,6.99-16.83,16.86-22.01,12.22-1.48-1.33-1.41-6.05.27-6.99Z" class="cls-1"/>
  <circle r="5.05" cy="189.47" cx="180" class="cls-1"/>
</svg>